<?xml version="1.0" encoding="UTF-8" standalone="no"?>
<!DOCTYPE svg PUBLIC "-//W3C//DTD SVG 20010904//EN"
"http://www.w3.org/TR/2001/REC-SVG-20010904/DTD/svg10.dtd">
<svg
   width="8.79167in"
   height="4.51389in"
   viewBox="0 0 633 325"
   xmlns="http://www.w3.org/2000/svg"
   xmlns:sodipodi="http://sodipodi.sourceforge.net/DTD/sodipodi-0.dtd"
   xmlns:inkscape="http://www.inkscape.org/namespaces/inkscape"
   xmlns:xlink="http://www.w3.org/1999/xlink"
   id="svg1"
   sodipodi:version="0.32"
   inkscape:version="0.40"
   xmlns:rdf="http://www.w3.org/1999/02/22-rdf-syntax-ns#"
   xmlns:cc="http://web.resource.org/cc/"
   xmlns:dc="http://purl.org/dc/elements/1.1/"
   sodipodi:docname="latvija.svg"
   sodipodi:docbase="/root/Desktop/raksti">
  <defs
     id="defs5" />
  <metadata
     id="metadata4">
    <rdf:RDF
       id="RDF6">
      <cc:Work
         rdf:about=""
         id="Work7">
        <dc:format
           id="format8">image/svg+xml</dc:format>
        <dc:type
           id="type10"
           rdf:resource="http://purl.org/dc/dcmitype/StillImage" />
        <dc:title
           id="title1061">LV_karte</dc:title>
        <dc:creator
           id="creator1063">
          <cc:Agent
             id="Agent1064">
            <dc:title
               id="title1065">BlackHalt</dc:title>
          </cc:Agent>
        </dc:creator>
        <dc:contributor
           id="contributor1067">
          <cc:Agent
             id="Agent1068">
            <dc:title
               id="title1069">http://neb.ija.lv/</dc:title>
          </cc:Agent>
        </dc:contributor>
        <cc:license
           id="license1071"
           rdf:resource="http://creativecommons.org/licenses/GPL/2.0/" />
      </cc:Work>
      <cc:License
         rdf:about="http://creativecommons.org/licenses/GPL/2.0/"
         id="License1072">
        <cc:permits
           rdf:resource="http://web.resource.org/cc/Reproduction"
           id="permits1073" />
        <cc:permits
           rdf:resource="http://web.resource.org/cc/Distribution"
           id="permits1074" />
        <cc:requires
           rdf:resource="http://web.resource.org/cc/Notice"
           id="requires1075" />
        <cc:permits
           rdf:resource="http://web.resource.org/cc/DerivativeWorks"
           id="permits1076" />
        <cc:requires
           rdf:resource="http://web.resource.org/cc/ShareAlike"
           id="requires1077" />
        <cc:requires
           rdf:resource="http://web.resource.org/cc/SourceCode"
           id="requires1078" />
      </cc:License>
    </rdf:RDF>
  </metadata>
  <sodipodi:namedview
     id="base"
     pagecolor="#ffffff"
     bordercolor="#666666"
     borderopacity="1.0"
     inkscape:pageopacity="0.0"
     inkscape:pageshadow="2"
     inkscape:zoom="0.43415836"
     inkscape:cx="305.25953"
     inkscape:cy="49.320349"
     inkscape:window-width="640"
     inkscape:window-height="538"
     inkscape:window-x="231"
     inkscape:window-y="95"
     inkscape:current-layer="svg1" />
  <path
     id="selection_to_path"
     fill="none"
     stroke="black"
     stroke-width="1"
     d="M 328.00,22.00            C 323.00,30.00 319.00,26.00 313.00,29.00              309.00,32.00 308.00,35.00 305.00,37.00              302.00,39.00 299.00,37.00 298.00,40.00              294.00,47.00 302.00,61.00 302.00,68.00              303.00,71.00 302.00,71.00 302.00,74.00              302.00,74.00 305.00,107.00 305.00,107.00              305.00,110.00 305.00,113.00 304.00,116.00              303.00,119.00 292.00,131.00 288.00,133.00              288.00,133.00 280.00,139.00 280.00,139.00              280.00,139.00 275.00,144.00 275.00,144.00              271.00,147.00 263.00,151.00 258.00,151.00              247.00,152.00 246.00,146.00 241.00,143.00              237.00,141.00 228.00,140.00 225.00,131.00              224.00,129.00 224.00,126.00 223.00,124.00              223.00,124.00 220.00,114.00 220.00,114.00              219.00,110.00 219.00,104.00 216.00,100.00              216.00,100.00 205.00,92.00 205.00,92.00              201.00,88.00 201.00,85.00 195.00,80.00              190.00,76.00 184.00,71.00 182.00,65.00              180.00,60.00 182.00,55.00 182.00,50.00              173.00,53.00 158.00,60.00 149.00,64.00              149.00,64.00 141.00,68.00 141.00,68.00              136.00,70.00 128.00,68.00 123.00,72.00              121.00,74.00 117.00,82.00 115.00,85.00              112.00,89.00 103.00,101.00 102.00,105.00              101.00,108.00 99.00,121.00 100.00,124.00              100.00,135.00 99.00,138.00 91.00,146.00              91.00,146.00 86.00,152.00 86.00,152.00              83.00,155.00 74.00,159.00 73.00,163.00              73.00,163.00 73.00,178.00 73.00,178.00              73.00,178.00 67.00,197.00 67.00,197.00              67.00,197.00 67.00,210.00 67.00,210.00              67.00,210.00 65.00,219.00 65.00,219.00              65.00,219.00 65.00,227.00 65.00,227.00              65.00,227.00 65.00,234.00 65.00,234.00              64.00,241.00 68.00,246.00 68.00,255.00              68.00,255.00 78.00,255.00 78.00,255.00              80.00,247.00 79.00,247.00 85.00,241.00              86.00,240.00 88.00,238.00 89.00,237.00              92.00,236.00 93.00,237.00 98.00,233.00              98.00,233.00 107.00,227.00 107.00,227.00              111.00,226.00 112.00,228.00 118.00,225.00              118.00,225.00 125.00,222.00 125.00,222.00              125.00,222.00 133.00,219.00 133.00,219.00              137.00,218.00 139.00,215.00 143.00,215.00              148.00,215.00 149.00,217.00 153.00,218.00              153.00,218.00 166.00,218.00 166.00,218.00              173.00,218.00 177.00,218.00 182.00,224.00              185.00,224.00 191.00,222.00 194.00,221.00              196.00,220.00 199.00,217.00 202.00,218.00              207.00,219.00 208.00,232.00 214.00,230.00              217.00,229.00 215.00,225.00 223.00,223.00              231.00,222.00 234.00,227.00 241.00,228.00              245.00,228.00 245.00,226.00 250.00,225.00              256.00,225.00 257.00,227.00 261.00,228.00              264.00,228.00 266.00,228.00 271.00,229.00              278.00,231.00 280.00,236.00 285.00,237.00              291.00,238.00 295.00,232.00 300.00,233.00              303.00,234.00 306.00,239.00 312.00,236.00              315.00,234.00 319.00,228.00 322.00,225.00              327.00,220.00 329.00,221.00 333.00,219.00              335.00,218.00 337.00,215.00 339.00,216.00              342.00,216.00 343.00,222.00 344.00,224.00              346.00,234.00 345.00,230.00 350.00,239.00              351.00,241.00 352.00,244.00 353.00,246.00              357.00,249.00 360.00,247.00 363.00,248.00              369.00,249.00 372.00,250.00 378.00,250.00              378.00,250.00 384.00,250.00 384.00,250.00              390.00,251.00 387.00,252.00 396.00,252.00              396.00,254.00 396.00,256.00 397.00,258.00              398.00,260.00 400.00,262.00 402.00,263.00              406.00,267.00 408.00,270.00 412.00,273.00              415.00,275.00 418.00,276.00 421.00,278.00              421.00,278.00 425.00,282.00 425.00,282.00              428.00,286.00 430.00,286.00 433.00,290.00              436.00,295.00 436.00,300.00 442.00,304.00              444.00,305.00 456.00,310.00 458.00,310.00              461.00,309.00 462.00,307.00 465.00,307.00              468.00,307.00 472.00,309.00 477.00,305.00              479.00,303.00 482.00,292.00 488.00,290.00              490.00,289.00 498.00,288.00 500.00,288.00              502.00,289.00 504.00,292.00 507.00,292.00              509.00,292.00 511.00,291.00 514.00,291.00              514.00,291.00 523.00,293.00 523.00,293.00              535.00,294.00 529.00,284.00 533.00,277.00              535.00,273.00 538.00,272.00 540.00,269.00              540.00,269.00 543.00,264.00 543.00,264.00              543.00,264.00 552.00,252.00 552.00,252.00              554.00,250.00 557.00,249.00 560.00,248.00              564.00,245.00 563.00,244.00 569.00,244.00              569.00,236.00 570.00,238.00 571.00,233.00              571.00,229.00 568.00,224.00 567.00,219.00              567.00,219.00 567.00,213.00 567.00,213.00              565.00,205.00 560.00,207.00 563.00,197.00              559.00,195.00 555.00,193.00 554.00,189.00              553.00,186.00 553.00,183.00 552.00,180.00              550.00,177.00 546.00,176.00 544.00,173.00              543.00,169.00 550.00,165.00 542.00,160.00              537.00,157.00 534.00,160.00 531.00,161.00              529.00,162.00 528.00,162.00 527.00,160.00              526.00,157.00 529.00,153.00 530.00,151.00              531.00,148.00 534.00,136.00 533.00,134.00              533.00,131.00 530.00,129.00 530.00,126.00              531.00,124.00 535.00,123.00 537.00,121.00              539.00,118.00 539.00,109.00 539.00,106.00              538.00,102.00 535.00,101.00 532.00,99.00              532.00,99.00 525.00,93.00 525.00,93.00              522.00,92.00 519.00,91.00 517.00,89.00              515.00,86.00 516.00,80.00 516.00,76.00              516.00,76.00 501.00,77.00 501.00,77.00              501.00,77.00 495.00,75.00 495.00,75.00              495.00,75.00 487.00,73.00 487.00,73.00              487.00,73.00 480.00,68.00 480.00,68.00              480.00,68.00 472.00,66.00 472.00,66.00              470.00,70.00 467.00,74.00 462.00,72.00              457.00,75.00 456.00,75.00 454.00,80.00              442.00,78.00 449.00,78.00 441.00,74.00              437.00,71.00 434.00,71.00 431.00,67.00              431.00,67.00 423.00,55.00 423.00,55.00              416.00,48.00 412.00,50.00 413.00,39.00              405.00,39.00 397.00,41.00 394.00,31.00              388.00,31.00 383.00,32.00 382.00,25.00              370.00,21.00 375.00,16.00 367.00,17.00              367.00,17.00 366.00,14.00 366.00,14.00              365.00,17.00 365.00,22.00 361.00,22.00              356.00,21.00 358.00,12.00 352.00,13.00              349.00,13.00 346.00,16.00 344.00,18.00              342.00,19.00 334.00,23.00 332.00,23.00              331.00,23.00 329.00,22.00 328.00,22.00 Z" />
</svg>
